<svg width="26" height="19" viewBox="0 0 26 19" fill="none" xmlns="http://www.w3.org/2000/svg">
<path fill-rule="evenodd" clip-rule="evenodd" d="M18.2812 10.6514C19.8796 11.7364 20.9996 13.2064 20.9996 15.1664V18.6664H24.4996C25.1412 18.6664 25.6662 18.1414 25.6662 17.4997V15.1664C25.6662 12.623 21.5012 11.118 18.2812 10.6514Z" fill="#65a3ff"/>
<path d="M9.33268 9.33333C11.91 9.33333 13.9993 7.244 13.9993 4.66667C13.9993 2.08934 11.91 0 9.33268 0C6.75535 0 4.66602 2.08934 4.66602 4.66667C4.66602 7.244 6.75535 9.33333 9.33268 9.33333Z" fill="#65a3ff"/>
<path fill-rule="evenodd" clip-rule="evenodd" d="M16.3329 9.33333C18.9112 9.33333 20.9996 7.245 20.9996 4.66667C20.9996 2.08833 18.9112 0 16.3329 0C15.7846 0 15.2712 0.116666 14.7812 0.28C15.7496 1.48167 16.3329 3.01 16.3329 4.66667C16.3329 6.32333 15.7496 7.85167 14.7812 9.05333C15.2712 9.21667 15.7846 9.33333 16.3329 9.33333Z" fill="#65a3ff"/>
<path fill-rule="evenodd" clip-rule="evenodd" d="M9.33333 10.5C6.21833 10.5 0 12.0633 0 15.1667V17.5C0 18.1417 0.525 18.6667 1.16667 18.6667H17.5C18.1417 18.6667 18.6667 18.1417 18.6667 17.5V15.1667C18.6667 12.0633 12.4483 10.5 9.33333 10.5Z" fill="#65a3ff"/>
</svg>
